<?xml version="1.0" standalone="no"?>
<!DOCTYPE svg PUBLIC "-//W3C//DTD SVG 20010904//EN"
 "http://www.w3.org/TR/2001/REC-SVG-20010904/DTD/svg10.dtd">
<svg version="1.0" xmlns="http://www.w3.org/2000/svg"
 width="966.000000pt" height="966.000000pt" viewBox="0 0 966.000000 966.000000"
 preserveAspectRatio="xMidYMid meet">
<metadata>
Created by potrace 1.16, written by Peter Selinger 2001-2019
</metadata>
<g transform="translate(0.000000,966.000000) scale(0.100000,-0.100000)"
fill="#000000" stroke="none">
<path d="M0 4830 l0 -4830 4830 0 4830 0 0 4830 0 4830 -4830 0 -4830 0 0
-4830z m5135 4689 c416 -27 806 -102 1189 -230 1699 -566 2941 -2075 3166
-3844 209 -1655 -449 -3262 -1760 -4296 -1147 -905 -2661 -1217 -4090 -842
-735 192 -1454 590 -1995 1104 -38 37 -84 80 -101 95 -17 16 -78 79 -134 139
-398 425 -720 935 -933 1475 -211 536 -326 1138 -327 1710 -1 1451 657 2802
1805 3705 894 703 2043 1059 3180 984z"/>
<path d="M2935 5798 c-4 -18 -8 -36 -9 -40 -1 -3 -4 -10 -8 -14 -5 -4 -8 -20
-8 -35 0 -41 -27 -52 -97 -40 -61 10 -201 -7 -241 -28 -11 -6 -31 -11 -44 -11
-29 0 -148 -56 -148 -70 0 -5 -7 -10 -15 -10 -21 0 -82 -34 -116 -64 -16 -14
-32 -26 -35 -26 -12 0 -54 -45 -54 -57 0 -7 -6 -13 -12 -13 -14 0 -88 -74 -88
-88 0 -11 -61 -94 -80 -109 -8 -6 -23 -28 -34 -50 -10 -21 -22 -46 -27 -56
-30 -57 -58 -155 -64 -218 -3 -39 -8 -76 -11 -81 -9 -14 15 -120 37 -164 25
-49 67 -100 81 -96 6 2 17 -6 25 -17 24 -35 114 -54 248 -54 138 0 189 7 336
51 59 18 114 32 122 32 9 0 17 3 19 8 2 4 41 22 88 41 163 66 320 152 343 188
4 7 14 13 21 13 17 0 119 100 111 108 -3 4 -9 2 -13 -3 -4 -6 -20 -17 -37 -25
-16 -8 -43 -25 -58 -37 -16 -13 -33 -21 -38 -17 -5 3 -9 0 -9 -5 0 -6 -3 -10
-7 -9 -12 2 -46 -14 -61 -29 -8 -7 -18 -11 -23 -8 -5 4 -9 2 -9 -2 0 -5 -42
-21 -92 -37 -51 -15 -102 -32 -113 -37 -28 -13 -133 -46 -180 -57 -22 -6 -67
-17 -100 -27 -65 -18 -64 -17 -209 -35 -118 -15 -272 -7 -321 16 -70 33 -116
95 -118 162 -1 12 -5 22 -10 22 -5 0 -4 7 3 14 6 8 11 30 9 48 -1 18 3 46 10
61 6 16 9 32 6 37 -6 9 24 71 40 82 5 4 10 17 10 30 0 13 5 22 13 21 6 -2 12
6 12 17 0 10 9 24 20 30 11 6 20 17 20 24 0 7 17 30 38 52 20 21 36 42 35 46
-2 4 2 8 8 8 6 0 25 16 43 35 19 19 31 35 29 35 -3 0 17 16 44 37 26 20 52 42
56 50 4 7 24 20 43 28 20 8 56 28 80 45 25 16 50 30 57 30 7 0 44 15 83 34 57
28 87 36 150 40 83 5 124 -6 93 -24 -23 -13 -142 -171 -135 -178 4 -3 20 4 36
16 16 12 33 22 37 22 7 0 37 28 134 124 32 32 60 61 60 65 1 3 2 18 3 32 1 14
8 37 17 50 27 43 39 79 39 114 0 45 -25 47 -35 3z"/>
<path d="M5453 5805 c-17 -23 -25 -25 -101 -26 -45 -1 -84 -5 -87 -9 -2 -4
-15 -5 -29 -3 -13 3 -27 0 -30 -6 -4 -6 -14 -11 -23 -11 -22 0 -123 -49 -123
-59 0 -5 19 -5 43 0 23 4 100 8 171 9 118 0 128 -1 121 -17 -4 -10 -12 -36
-18 -58 -5 -22 -13 -44 -17 -50 -14 -19 -51 -154 -48 -173 2 -10 -2 -25 -8
-33 -11 -14 -67 -229 -79 -304 -41 -264 -40 -469 3 -483 11 -3 12 13 8 83 -4
48 -9 91 -12 96 -3 5 0 9 6 9 6 0 9 19 8 48 -1 26 1 61 5 77 4 17 8 47 9 68 1
21 5 40 9 43 4 2 4 24 1 49 -3 32 -1 45 8 45 7 0 10 7 6 15 -3 8 -1 15 4 15 6
0 10 8 10 18 0 35 92 342 103 342 4 0 7 7 7 15 0 9 17 51 37 95 35 73 40 79
63 73 42 -10 190 -76 190 -85 0 -4 6 -8 13 -8 17 0 187 -163 187 -178 0 -7 4
-12 10 -12 12 0 40 -59 54 -115 4 -16 10 -37 13 -45 11 -32 9 -148 -4 -200 -7
-30 -15 -63 -17 -72 -10 -41 -30 -58 -100 -87 -41 -17 -80 -31 -86 -31 -10 0
-77 -27 -175 -70 -11 -5 -30 -12 -42 -15 -53 -15 -207 -110 -253 -158 -59 -60
-65 -93 -24 -134 24 -24 29 -25 97 -19 41 4 91 16 117 29 25 12 47 22 50 23 3
0 18 6 33 12 16 7 31 12 33 12 3 0 20 11 38 25 18 14 37 25 41 25 27 0 140 87
227 175 78 79 98 104 98 119 0 17 74 76 95 76 7 0 22 9 35 20 28 24 19 25 -26
4 -41 -20 -51 -13 -35 22 23 50 32 205 17 289 -4 22 -15 58 -24 80 -23 57
-106 179 -134 197 -13 9 -48 39 -78 67 -29 28 -69 56 -89 62 -20 7 -60 25 -88
41 -32 18 -73 32 -105 35 -59 6 -78 16 -78 44 0 29 -17 31 -37 4z m380 -1015
c-23 -22 -44 -40 -47 -40 -4 0 -39 -24 -78 -54 -39 -30 -83 -57 -97 -61 -14
-3 -43 -17 -63 -31 -21 -13 -44 -24 -51 -24 -16 0 -133 -37 -164 -52 -13 -6
-26 -8 -30 -5 -9 10 14 57 29 57 17 0 118 71 118 83 0 6 3 7 6 4 4 -4 19 2 33
12 34 23 141 73 165 78 11 2 25 8 33 14 7 6 13 8 13 3 0 -5 4 -4 8 1 8 11 155
65 161 59 2 -2 -14 -22 -36 -44z"/>
<path d="M3512 5808 c-5 -7 -15 -33 -22 -57 -6 -24 -15 -51 -20 -60 -20 -41
-30 -69 -35 -104 -3 -21 -12 -52 -21 -68 -8 -17 -13 -33 -11 -36 3 -3 -1 -27
-9 -54 -8 -27 -14 -55 -13 -62 3 -15 -9 -67 -21 -88 -4 -9 -10 -38 -11 -65 -2
-27 -8 -64 -15 -83 -6 -18 -10 -46 -8 -62 3 -22 -4 -34 -33 -58 -38 -32 -40
-51 -4 -31 20 10 21 8 21 -52 1 -116 8 -183 24 -221 17 -38 66 -77 99 -77 17
0 17 3 -4 38 -13 20 -28 40 -33 44 -17 11 -14 261 3 338 11 48 29 86 69 145
60 87 122 209 122 238 0 10 7 31 15 47 23 45 31 215 12 260 -25 58 -82 95
-105 68z m95 -188 c-6 -70 -25 -148 -44 -177 -9 -13 -12 -23 -8 -23 4 0 2 -6
-4 -13 -6 -8 -8 -17 -4 -20 3 -4 2 -7 -4 -7 -10 0 -27 -36 -24 -53 1 -4 -13
-29 -31 -55 -18 -26 -32 -50 -30 -54 1 -5 -4 -8 -12 -8 -12 0 -10 15 6 83 35
142 97 336 126 395 16 31 17 31 25 10 5 -13 6 -48 4 -78z"/>
<path d="M4300 5308 c-30 -5 -70 -11 -88 -13 -18 -2 -39 -8 -46 -14 -17 -14
-80 -25 -140 -23 -52 1 -61 -5 -91 -55 -11 -18 -24 -33 -30 -33 -6 0 -29 -9
-50 -20 -22 -11 -41 -16 -43 -11 -2 5 -19 5 -43 0 -25 -6 -53 -6 -73 0 -17 5
-56 14 -86 21 -30 6 -65 13 -78 17 -20 5 -22 2 -20 -28 1 -19 7 -42 14 -52 17
-26 4 -318 -16 -342 -5 -6 -7 -14 -4 -18 9 -8 -18 -80 -35 -94 -13 -12 -13
-13 1 -13 40 0 74 75 83 185 10 114 10 117 1 198 -8 65 -7 67 16 68 92 4 146
9 166 14 15 4 22 1 22 -10 0 -17 49 -21 66 -6 5 4 21 11 37 15 24 6 26 4 18
-11 -33 -63 -64 -184 -65 -254 -1 -72 1 -79 28 -105 37 -38 105 -40 156 -3 45
31 130 120 130 136 0 7 6 16 13 20 14 8 32 37 65 108 38 80 38 78 48 174 6 61
5 64 -22 90 l-29 26 30 3 c17 2 37 5 45 9 37 14 175 -1 164 -18 -3 -5 -8 -24
-10 -42 -7 -45 -11 -66 -24 -117 -18 -67 -18 -295 -1 -354 17 -58 55 -86 118
-86 33 0 49 6 72 29 16 16 32 27 35 24 3 -3 9 3 12 13 4 10 15 28 24 39 10 11
30 43 45 70 15 28 30 55 33 60 4 6 8 21 10 35 3 24 3 24 -12 5 -8 -11 -16 -24
-16 -28 0 -11 -58 -94 -82 -119 -10 -10 -18 -22 -18 -26 0 -5 -18 -17 -40 -27
-35 -16 -44 -16 -65 -5 -13 7 -30 29 -36 49 -12 36 -18 167 -9 179 3 4 25 18
50 31 89 47 138 91 154 140 14 43 14 46 -8 67 -12 13 -47 32 -78 44 -31 11
-63 31 -71 44 -14 20 -23 22 -94 22 -43 0 -103 -4 -133 -8z m290 -93 c42 -27
49 -49 28 -87 -16 -28 -84 -95 -110 -109 -20 -11 -21 -9 -14 42 10 81 40 179
53 179 2 0 21 -11 43 -25z m-404 -17 c19 -23 24 -91 10 -128 -3 -8 -15 -42
-27 -75 -12 -33 -30 -72 -41 -87 -11 -16 -16 -32 -13 -38 3 -5 -1 -10 -10 -10
-8 0 -21 -12 -28 -27 -6 -16 -18 -32 -25 -37 -8 -4 -23 -19 -35 -32 -11 -13
-36 -29 -55 -35 -29 -10 -37 -9 -53 7 -40 41 -19 144 74 348 18 38 31 73 30
77 -4 11 33 31 82 46 59 16 69 15 91 -9z"/>
<path d="M6288 5308 c0 -7 -2 -17 -2 -23 -1 -5 -4 -15 -8 -20 -3 -6 -9 -28
-13 -50 -4 -22 -11 -54 -16 -70 -21 -68 -31 -267 -18 -340 13 -71 33 -109 66
-124 34 -16 95 -14 120 4 21 14 24 14 43 -5 28 -28 38 -26 79 18 34 35 66 95
155 282 19 41 53 95 75 120 40 44 41 45 56 25 10 -12 14 -29 10 -45 -3 -14 -6
-31 -5 -37 0 -17 0 -33 0 -123 1 -84 8 -140 20 -140 4 0 10 -8 13 -19 6 -23
63 -35 103 -21 16 6 41 25 55 43 34 42 79 127 79 149 0 9 5 20 10 23 6 3 10
14 10 23 -1 14 -2 14 -12 -3 -6 -11 -16 -24 -22 -30 -14 -12 -46 -78 -46 -94
0 -6 -4 -11 -10 -11 -5 0 -10 -6 -10 -14 0 -8 -14 -17 -31 -21 -65 -15 -80 38
-72 250 7 174 1 195 -50 195 -48 0 -123 -75 -154 -153 -9 -23 -23 -48 -30 -55
-7 -7 -14 -18 -14 -23 -3 -18 -5 -25 -22 -56 -9 -18 -17 -41 -17 -51 0 -11 -7
-25 -15 -32 -8 -7 -15 -19 -15 -27 0 -14 -29 -60 -64 -100 -15 -17 -22 -20
-33 -12 -10 9 -9 16 6 38 10 14 24 41 32 59 8 17 17 32 20 32 6 0 39 73 39 85
0 15 -19 1 -31 -22 -7 -16 -28 -49 -45 -75 -79 -117 -129 -150 -176 -114 -23
17 -45 118 -40 181 4 49 5 50 56 74 93 45 147 101 162 170 5 23 -37 59 -87 76
-26 9 -58 29 -73 45 -27 31 -75 41 -78 18z m135 -93 c23 -16 37 -34 37 -46 0
-24 -39 -99 -51 -99 -5 0 -20 -11 -35 -25 -42 -39 -58 -33 -50 18 8 51 48 177
56 177 3 0 22 -11 43 -25z"/>
<path d="M7670 5310 c-30 -5 -73 -11 -94 -14 -22 -4 -45 -11 -51 -16 -16 -13
-80 -24 -139 -22 -52 1 -61 -5 -91 -55 -11 -18 -25 -33 -33 -33 -7 0 -24 -7
-38 -17 -14 -9 -39 -16 -57 -15 -34 1 -47 -11 -47 -45 0 -19 6 -23 28 -23 15
0 32 4 38 9 5 4 21 11 37 15 24 6 26 4 17 -11 -25 -46 -62 -185 -66 -250 -4
-69 -3 -74 25 -105 26 -29 35 -33 78 -32 35 0 59 7 83 25 42 29 130 120 130
134 0 6 9 18 20 28 11 9 20 23 20 31 0 7 7 19 14 26 8 6 22 33 32 58 9 26 19
54 22 62 9 26 12 44 18 101 5 51 3 59 -21 85 l-27 29 28 3 c16 2 36 5 44 9 21
8 114 3 152 -8 38 -10 60 4 30 20 -30 16 -91 20 -152 11z m-124 -112 c21 -26
24 -93 5 -141 -6 -15 -14 -39 -17 -53 -3 -13 -10 -27 -15 -30 -5 -3 -9 -14 -9
-25 0 -10 -4 -19 -8 -19 -11 0 -34 -49 -27 -60 3 -4 -4 -10 -15 -13 -11 -3
-24 -16 -29 -29 -14 -33 -72 -86 -111 -99 -27 -10 -34 -9 -50 7 -42 44 -23
140 68 336 22 47 38 89 35 91 -11 12 92 53 138 56 8 1 24 -9 35 -21z"/>
</g>
</svg>
